<?xml version="1.0" standalone="no"?>
<!DOCTYPE svg PUBLIC "-//W3C//DTD SVG 20010904//EN"
 "http://www.w3.org/TR/2001/REC-SVG-20010904/DTD/svg10.dtd">
<svg version="1.0" xmlns="http://www.w3.org/2000/svg"
 width="36.000000pt" height="36.000000pt" viewBox="0 0 36.000000 36.000000"
 preserveAspectRatio="xMidYMid meet">

<g transform="translate(0.000000,36.000000) scale(0.100000,-0.100000)"
fill="#000000" stroke="none">
<path d="M137 344 c-3 -3 1 -17 9 -32 16 -31 18 -62 4 -62 -5 0 -12 11 -16 25
-8 31 -28 21 -22 -10 4 -19 0 -24 -23 -27 -15 -3 -26 0 -23 4 7 10 -14 38 -27
38 -5 0 -3 -13 6 -29 10 -20 11 -31 4 -33 -14 -5 -21 -76 -8 -84 5 -3 9 -14 9
-24 0 -31 52 -80 82 -78 15 1 24 6 22 10 -3 4 4 8 16 8 12 0 18 -4 15 -10 -4
-6 6 -10 22 -10 21 0 35 10 54 38 32 46 41 80 30 119 -6 21 -4 39 9 66 18 36
18 36 -1 26 -10 -5 -20 -14 -20 -19 -1 -6 -2 -14 -3 -19 -2 -15 -16 -26 -16
-13 0 7 -9 12 -20 12 -25 0 -26 28 -2 46 16 12 16 13 0 14 -9 0 -20 -5 -24
-12 -12 -20 -11 -58 3 -58 30 0 64 -24 60 -42 -3 -10 -1 -18 4 -18 5 0 9 -7 9
-15 0 -8 -4 -15 -10 -15 -5 0 -10 4 -10 8 0 5 -9 19 -20 32 -11 12 -17 27 -14
31 3 5 -11 9 -30 9 -32 0 -36 -3 -36 -25 0 -18 -5 -25 -20 -25 -24 0 -28 35
-6 47 8 4 19 24 24 43 10 35 10 35 11 6 1 -22 4 -27 12 -19 8 8 5 22 -10 51
-21 42 -34 55 -44 46z m-6 -117 c-12 -6 -16 -16 -13 -33 3 -19 0 -24 -16 -24
-28 0 -36 15 -18 33 8 8 12 17 9 21 -4 3 4 6 16 6 18 0 21 4 16 23 -7 22 -7
22 8 2 14 -18 14 -21 -2 -28z m-61 -22 c-10 -12 -10 -19 -2 -27 18 -18 15 -50
-5 -46 -23 4 -29 28 -7 28 16 0 16 1 -1 14 -16 12 -17 16 -6 30 7 9 18 16 23
16 6 0 5 -7 -2 -15z m158 -18 c4 -20 -25 -34 -40 -19 -15 15 -1 44 19 40 10
-2 19 -11 21 -21z m27 -27 c4 -6 1 -17 -5 -26 -10 -11 -16 -12 -26 -3 -11 9
-11 15 -3 25 14 17 25 18 34 4z m-114 -12 c0 -10 2 -10 6 0 6 16 38 15 52 -2
16 -19 6 -23 -56 -24 -46 -1 -53 2 -53 19 0 14 7 19 25 19 14 0 25 -6 26 -12z
m139 -30 c0 -7 -9 -24 -20 -38 -14 -19 -22 -22 -31 -13 -13 13 -2 36 13 27 7
-5 8 -2 3 6 -4 7 -2 16 6 21 20 12 29 11 29 -3z m-186 -7 c3 -5 -1 -12 -10
-15 -22 -9 -24 -8 -24 9 0 16 25 21 34 6z m71 -19 c-3 -9 -3 -13 1 -9 8 7 64
-23 64 -35 0 -14 -20 -9 -26 6 -3 8 -13 12 -25 9 -12 -4 -26 3 -39 18 -15 19
-19 20 -20 8 0 -21 -22 -30 -41 -19 -10 7 -2 14 31 29 47 21 65 19 55 -7z m65
19 c0 -15 -19 -23 -38 -16 -14 5 -14 7 -2 15 19 12 40 13 40 1z m-90 -51 c0
-13 -7 -20 -20 -20 -25 0 -25 9 -2 26 22 17 22 17 22 -6z"/>
</g>
</svg>
